<?xml version="1.0" standalone="no"?>
<!DOCTYPE svg PUBLIC "-//W3C//DTD SVG 20010904//EN"
 "http://www.w3.org/TR/2001/REC-SVG-20010904/DTD/svg10.dtd">
<svg version="1.0" xmlns="http://www.w3.org/2000/svg"
 width="3040.000000pt" height="3040.000000pt" viewBox="0 0 3040.000000 3040.000000"
 preserveAspectRatio="xMidYMid meet">
<metadata>
Created by potrace 1.14, written by Peter Selinger 2001-2017
</metadata>
<g transform="translate(0.000000,3040.000000) scale(0.100000,-0.100000)"
fill="#000000" stroke="none">
<path d="M9895 18573 c-50 -120 -61 -147 -81 -193 -10 -24 -19 -47 -20 -50 0
-3 -8 -22 -17 -44 -9 -21 -17 -40 -17 -41 0 -1 -10 -24 -22 -51 -12 -27 -23
-51 -23 -54 -1 -3 -8 -18 -15 -35 -7 -16 -14 -34 -16 -40 -1 -5 -10 -28 -20
-50 -10 -22 -18 -42 -19 -45 -1 -3 -7 -18 -13 -33 -7 -16 -12 -33 -12 -38 0
-5 -4 -9 -8 -9 -5 0 -9 -6 -9 -14 0 -8 -7 -29 -15 -47 -9 -19 -33 -74 -53
-124 -21 -49 -45 -108 -55 -130 -9 -22 -26 -62 -36 -90 -10 -27 -24 -60 -32
-72 -8 -13 -11 -23 -7 -23 4 0 3 -6 -3 -12 -5 -7 -22 -44 -37 -83 -15 -38 -35
-86 -44 -105 -9 -19 -16 -37 -17 -40 0 -3 -8 -22 -17 -44 -9 -21 -17 -40 -17
-42 0 -2 -10 -26 -21 -52 -42 -93 -49 -110 -49 -117 0 -3 -10 -27 -22 -53 -12
-26 -22 -49 -23 -52 -1 -3 -9 -22 -18 -44 -9 -21 -17 -41 -17 -43 0 -3 -6 -19
-14 -36 -8 -18 -27 -61 -41 -97 -14 -36 -32 -78 -40 -95 -7 -16 -45 -109 -84
-205 -40 -96 -76 -184 -81 -195 -5 -11 -32 -76 -61 -145 -28 -69 -57 -138 -64
-155 -7 -16 -24 -55 -36 -85 -28 -64 -152 -312 -193 -385 -78 -137 -199 -276
-299 -344 -49 -33 -160 -88 -193 -96 -11 -2 -37 -9 -59 -14 -22 -6 -43 -11
-47 -11 -5 0 -9 354 -10 787 l-3 787 -32 2 c-19 1 -33 -3 -34 -10 0 -6 -2 -20
-4 -31 -1 -11 -5 -51 -9 -90 -4 -38 -8 -88 -10 -110 -14 -133 -62 -355 -80
-367 -6 -4 -8 -8 -3 -8 4 0 1 -13 -8 -30 -9 -16 -13 -30 -11 -30 3 0 -11 -27
-30 -61 -18 -33 -34 -63 -34 -66 0 -14 -114 -139 -171 -188 -110 -94 -324
-187 -484 -210 -22 -4 -51 -8 -65 -11 -80 -13 -242 -17 -833 -18 -384 -1 -661
3 -665 8 -7 13 -6 2819 2 2886 11 92 16 112 47 177 81 169 255 245 581 252 49
1 58 11 50 56 -3 20 -8 20 -1024 20 -1013 0 -1021 0 -1024 -20 -7 -47 2 -52
104 -59 104 -7 138 -11 189 -21 18 -3 34 -6 35 -5 7 2 119 -40 154 -58 47 -24
115 -95 143 -149 10 -22 28 -68 37 -104 17 -60 18 -150 18 -1494 0 -786 -2
-1450 -6 -1475 -5 -42 -11 -58 -44 -136 -25 -59 -93 -123 -167 -158 -40 -19
-92 -40 -117 -46 -25 -6 -54 -13 -65 -15 -27 -7 -191 -22 -262 -24 -19 -1 -23
-7 -23 -36 l0 -35 53 0 c68 -1 5571 -1 5619 0 36 0 37 1 36 35 -1 24 -6 35
-17 36 -51 2 -171 15 -239 25 -20 3 -69 17 -109 30 -226 78 -322 207 -324 435
0 84 15 174 32 193 5 6 9 15 9 22 0 6 8 29 17 50 9 22 17 41 18 44 3 9 17 45
25 65 5 11 21 49 36 85 14 36 32 79 39 95 7 17 23 57 36 90 13 33 27 65 31 71
5 7 225 10 704 10 609 -1 698 -3 705 -16 13 -23 40 -88 122 -290 42 -102 81
-198 88 -215 7 -16 13 -32 14 -35 1 -3 9 -22 18 -43 14 -33 24 -63 45 -137 11
-42 8 -179 -6 -220 -36 -109 -132 -192 -247 -215 -22 -5 -47 -10 -55 -12 -24
-6 -70 -12 -135 -17 -147 -13 -189 -17 -193 -21 -8 -8 -9 -56 0 -61 6 -4 1342
-7 2054 -4 l91 0 -1 35 c-1 30 -4 35 -26 36 -124 2 -285 38 -385 85 -73 34
-163 93 -190 126 -59 68 -123 185 -200 368 -15 36 -36 84 -46 107 -11 24 -19
45 -19 48 0 3 -9 24 -19 48 -11 23 -34 78 -51 122 -18 44 -38 94 -45 110 -8
17 -23 55 -35 85 -12 30 -28 69 -35 85 -12 28 -65 158 -198 485 -54 133 -68
166 -92 225 -7 17 -47 116 -89 220 -42 105 -81 199 -86 210 -8 17 -30 70 -35
85 -1 3 -7 17 -13 32 -6 16 -32 79 -57 140 -25 62 -50 123 -55 136 -9 20 -14
32 -39 95 -5 12 -16 38 -24 57 -9 19 -25 60 -37 90 -12 30 -27 66 -33 80 -5
14 -11 30 -12 35 -2 6 -13 33 -25 60 -35 80 -37 83 -96 230 -31 77 -76 190
-101 250 -51 124 -60 146 -63 160 -10 45 -8 45 -254 45 l-233 0 -28 -67z m145
-846 c0 -5 6 -23 14 -40 34 -78 46 -108 81 -192 20 -49 42 -103 50 -120 7 -16
34 -82 59 -145 26 -63 51 -124 56 -135 5 -11 21 -49 36 -85 30 -74 43 -105 73
-172 11 -26 21 -50 21 -52 0 -2 8 -21 17 -42 9 -22 18 -43 19 -49 1 -5 19 -48
39 -95 20 -47 45 -106 55 -132 l19 -46 -142 -2 c-78 -1 -149 -1 -157 -1 -8 0
-197 0 -419 1 l-403 0 6 25 c4 14 17 49 30 78 13 28 42 99 66 157 23 58 48
119 55 135 8 17 37 86 65 155 59 145 84 205 116 278 13 29 24 55 24 58 0 3 14
38 31 77 41 98 42 100 84 202 20 50 40 99 45 110 5 11 14 33 20 49 10 28 11
28 25 10 8 -10 15 -23 15 -27z"/>
<path d="M23120 18533 c-24 -60 -54 -131 -67 -160 -13 -28 -23 -54 -23 -57 0
-4 -9 -28 -21 -54 -12 -26 -25 -56 -29 -67 -38 -90 -63 -153 -95 -230 -20 -49
-44 -103 -53 -120 -9 -16 -15 -31 -14 -32 2 -4 -7 -29 -35 -92 -12 -29 -23
-60 -23 -67 0 -8 -5 -14 -12 -14 -6 0 -8 -3 -5 -6 3 -4 1 -16 -5 -28 -7 -11
-13 -25 -14 -31 -3 -11 -117 -284 -139 -332 -8 -17 -15 -34 -15 -38 0 -3 -8
-25 -19 -48 -21 -49 -28 -69 -29 -81 0 -5 -4 -12 -9 -15 -4 -3 -14 -24 -22
-46 -8 -22 -24 -62 -36 -90 -12 -27 -53 -124 -90 -215 -37 -91 -71 -170 -76
-176 -5 -6 -10 -19 -12 -30 -2 -10 -10 -35 -19 -54 -8 -19 -30 -71 -48 -115
-18 -44 -39 -93 -46 -110 -8 -16 -59 -139 -114 -273 -115 -279 -169 -399 -240
-532 -27 -52 -50 -98 -50 -102 0 -4 -4 -8 -8 -8 -5 0 -14 -12 -21 -27 -12 -27
-60 -103 -72 -113 -3 -3 -13 -16 -22 -30 -33 -49 -133 -142 -197 -184 -78 -51
-182 -95 -262 -112 -95 -19 -114 -20 -203 -11 -312 34 -432 120 -492 352 -10
40 -10 2922 0 2960 4 17 9 35 10 40 2 6 6 16 10 23 5 6 6 12 3 12 -3 0 8 25
25 56 81 150 214 209 519 230 47 3 90 7 96 9 5 1 8 18 6 37 l-4 33 -819 0
-819 0 -32 -80 c-18 -44 -33 -82 -34 -85 0 -3 -6 -16 -11 -30 -6 -14 -28 -68
-48 -120 -20 -51 -41 -101 -48 -109 -7 -8 -11 -16 -9 -18 4 -6 -10 -57 -24
-83 -7 -14 -34 -79 -60 -145 -46 -119 -122 -313 -145 -370 -7 -16 -13 -32 -13
-35 -1 -5 -60 -156 -81 -205 -6 -16 -18 -46 -25 -65 -7 -19 -16 -39 -20 -45
-4 -5 -13 -31 -20 -57 -7 -27 -17 -48 -21 -48 -5 0 -9 -6 -9 -14 0 -12 -225
-593 -259 -671 -8 -18 -99 -249 -138 -350 -32 -84 -38 -85 -66 -18 -10 26 -23
57 -28 68 -4 11 -54 137 -109 280 -56 143 -105 269 -110 280 -36 82 -50 119
-50 126 0 5 -9 28 -19 52 -17 36 -163 403 -166 417 -2 6 -38 98 -66 165 -4 11
-33 85 -65 165 -31 80 -99 252 -150 383 -52 131 -94 240 -94 243 0 2 -8 23
-19 47 -19 43 -45 108 -47 117 0 3 -5 16 -11 30 -6 14 -23 57 -39 95 -15 39
-31 72 -35 75 -4 3 -389 5 -855 5 l-847 0 -4 -25 c-1 -14 1 -30 5 -36 4 -7 49
-14 102 -18 52 -3 106 -8 120 -11 14 -2 41 -7 60 -9 105 -14 272 -95 286 -138
3 -10 9 -18 15 -18 23 0 82 -158 90 -240 7 -77 3 -2730 -4 -2793 -16 -137 -66
-261 -126 -316 -76 -71 -223 -130 -366 -147 -45 -5 -128 -12 -162 -13 -19 -1
-22 -6 -21 -36 1 -33 3 -35 37 -35 46 -1 1711 -1 1769 0 41 0 42 1 42 35 0 29
-4 35 -22 36 -148 6 -233 20 -337 55 -87 29 -148 63 -191 107 -34 34 -96 150
-104 195 -3 15 -7 37 -10 49 -2 12 -8 50 -12 85 -8 71 -12 2694 -4 2729 l5 21
12 -23 c6 -13 30 -73 53 -134 23 -60 46 -119 51 -130 4 -11 72 -182 150 -380
77 -198 149 -379 160 -402 10 -24 19 -47 19 -53 0 -6 4 -18 10 -28 5 -9 23
-51 39 -92 154 -395 214 -548 221 -565 5 -11 19 -45 30 -75 11 -30 25 -64 30
-75 5 -11 48 -119 95 -240 136 -346 275 -698 284 -720 5 -11 33 -81 61 -155
29 -74 59 -148 66 -165 7 -16 15 -40 19 -52 5 -19 14 -22 63 -25 116 -6 203 2
209 20 19 53 176 452 189 479 8 17 14 33 14 36 0 2 8 22 17 43 9 22 18 44 19
49 2 10 117 303 134 340 5 11 51 128 103 260 52 132 121 310 155 395 73 185
84 215 81 215 -1 0 8 19 19 41 12 23 18 44 15 48 -4 3 -1 6 5 6 7 0 12 6 12
13 0 13 144 385 176 454 8 17 14 34 14 38 0 4 6 21 14 38 18 41 186 466 186
471 0 2 8 21 17 42 9 22 17 41 18 44 1 3 7 18 13 33 7 16 12 31 12 34 0 4 13
35 41 98 5 11 15 38 22 59 8 22 19 42 25 44 8 2 11 -367 9 -1415 l-2 -1418
-22 -71 c-42 -130 -133 -230 -238 -261 -96 -28 -169 -43 -237 -49 -46 -4 -94
-8 -108 -10 -14 -1 -37 -2 -51 -3 -23 -1 -26 -5 -26 -36 0 -34 1 -35 41 -35
350 -4 3849 0 3853 4 6 6 7 55 1 61 -2 2 -33 7 -68 10 -90 8 -141 14 -170 20
-60 12 -90 17 -97 17 -5 0 -17 5 -28 11 -11 6 -22 12 -25 12 -70 12 -218 123
-235 176 -4 10 -10 19 -14 19 -7 0 -15 22 -39 100 -11 35 -9 226 3 269 7 26
41 117 75 202 35 85 84 206 109 269 l46 115 698 0 c384 1 701 -2 705 -5 4 -3
36 -77 72 -165 35 -88 71 -178 80 -200 9 -22 27 -65 40 -95 13 -30 31 -73 41
-95 58 -135 83 -295 58 -376 -6 -19 -11 -40 -12 -46 0 -7 -4 -13 -9 -13 -4 0
-8 -7 -8 -15 0 -9 -22 -38 -48 -64 -47 -47 -110 -82 -168 -95 -59 -13 -80 -17
-114 -21 -19 -2 -57 -6 -85 -10 -27 -3 -79 -7 -115 -10 -36 -2 -68 -4 -72 -4
-5 -1 -8 -17 -8 -36 l0 -35 68 0 c77 -1 3630 -1 3829 0 l132 0 -1 30 c-1 37
-11 44 -63 46 -45 1 -156 12 -195 19 -14 3 -41 7 -60 10 -244 39 -390 154
-392 309 -1 50 9 111 20 131 4 6 7 15 8 20 4 28 135 226 173 263 10 9 47 51
82 92 35 41 66 77 69 80 3 3 27 32 54 65 27 33 59 70 70 81 12 12 35 39 52 60
18 22 42 51 55 65 13 14 42 47 64 74 22 28 47 57 55 66 8 8 40 44 70 80 30 35
66 76 80 90 l25 26 36 -38 c20 -22 35 -39 34 -39 -1 0 16 -20 39 -44 22 -24
57 -61 76 -83 45 -51 204 -226 252 -278 20 -22 49 -54 65 -72 15 -17 62 -69
104 -115 42 -45 99 -107 125 -137 27 -30 59 -65 72 -79 12 -14 22 -28 22 -31
0 -3 14 -20 30 -38 17 -18 30 -37 30 -42 0 -6 5 -11 10 -11 6 0 10 -5 10 -11
0 -6 8 -23 19 -37 18 -26 36 -75 47 -123 17 -79 -4 -158 -56 -209 -38 -38
-144 -96 -190 -104 -14 -2 -25 -5 -25 -6 0 -1 -11 -3 -25 -6 -14 -2 -47 -9
-75 -14 -27 -5 -106 -12 -174 -15 -68 -3 -127 -7 -130 -10 -8 -4 -7 -52 1 -61
5 -4 1587 -7 2221 -4 l77 0 0 35 c0 36 5 33 -85 50 -11 2 -20 4 -20 5 0 1 -10
3 -23 6 -80 15 -283 116 -354 176 -15 13 -43 37 -64 53 -81 64 -242 233 -454
475 -60 69 -129 146 -150 169 -14 15 -54 60 -90 101 -36 40 -80 88 -98 107
-18 18 -31 33 -28 33 2 0 -17 22 -43 49 -25 27 -59 64 -75 82 -40 46 -167 189
-186 209 -20 21 -143 159 -167 186 -10 12 -52 58 -93 104 -41 46 -83 92 -93
104 -30 34 -88 98 -120 133 -25 27 -28 34 -16 46 15 15 16 16 159 182 52 61
99 115 105 121 11 12 61 70 171 199 38 44 74 85 79 91 10 11 108 122 135 154
8 10 31 37 50 60 19 24 42 50 51 59 9 9 33 36 54 61 113 138 296 331 386 405
57 48 168 120 244 158 120 59 303 122 390 132 6 0 36 5 68 9 l57 8 0 37 0 36
-1100 0 -1100 0 0 -37 c0 -36 2 -38 33 -39 87 -2 193 -13 247 -25 14 -3 36 -7
50 -10 69 -13 177 -64 222 -105 55 -51 82 -112 85 -191 4 -150 -44 -252 -206
-438 -12 -14 -39 -45 -59 -69 -20 -23 -41 -48 -47 -55 -5 -6 -37 -43 -70 -81
-33 -39 -69 -81 -82 -95 -12 -14 -54 -63 -94 -110 -39 -47 -76 -86 -80 -88 -5
-2 -9 -8 -9 -13 0 -5 -9 -18 -21 -30 -24 -24 -12 -32 -109 76 -29 33 -85 95
-124 139 -39 43 -84 93 -99 110 -15 17 -42 47 -60 66 -18 19 -61 68 -97 109
-36 41 -76 86 -90 101 -14 14 -53 57 -87 96 -34 38 -84 94 -112 124 -28 30
-53 63 -57 73 -3 9 -10 17 -16 17 -6 0 -8 3 -5 7 4 3 2 12 -5 20 -6 8 -11 40
-11 72 0 74 36 143 98 188 48 36 161 77 240 88 28 4 61 9 75 11 14 2 59 7 100
10 41 3 78 8 81 10 4 2 7 19 6 37 l-2 32 -1060 0 -1060 0 -3 -35 -3 -36 63
-14 c35 -7 65 -14 68 -14 19 -4 113 -44 150 -64 150 -83 294 -206 470 -402 36
-40 76 -85 90 -100 14 -15 53 -59 88 -98 35 -39 73 -82 85 -95 12 -13 52 -57
89 -98 36 -41 77 -86 90 -100 12 -14 50 -56 83 -93 33 -37 74 -82 90 -100 17
-18 62 -68 100 -111 39 -43 81 -90 94 -104 12 -14 51 -57 85 -95 33 -38 72
-81 86 -97 14 -15 54 -60 90 -100 36 -40 80 -88 98 -107 l33 -34 -26 -33 c-13
-18 -30 -39 -37 -47 -7 -7 -36 -40 -63 -73 -28 -33 -53 -62 -56 -65 -4 -3 -33
-36 -65 -75 -82 -98 -105 -124 -135 -156 -15 -15 -33 -36 -40 -47 -8 -10 -39
-48 -71 -83 -31 -35 -67 -77 -79 -94 -13 -16 -29 -34 -35 -40 -10 -9 -153
-175 -322 -375 -26 -30 -59 -68 -74 -83 -16 -16 -28 -30 -28 -33 0 -5 -72 -84
-131 -143 -80 -80 -164 -154 -283 -252 -130 -106 -457 -256 -531 -243 -128 22
-297 103 -365 175 -34 35 -70 78 -70 83 0 2 -15 30 -33 63 -33 58 -121 251
-167 368 -4 11 -15 36 -23 55 -8 19 -43 105 -77 190 -34 85 -68 169 -76 185
-14 32 -74 179 -147 360 -24 61 -48 119 -52 130 -5 11 -9 22 -10 25 -1 3 -11
27 -23 53 -12 27 -22 51 -22 53 0 5 -95 235 -117 283 -8 18 -16 39 -17 45 -1
6 -10 26 -19 43 -10 18 -18 36 -18 40 -2 13 -82 215 -114 288 -15 35 -80 192
-160 390 -32 77 -87 212 -122 300 -36 88 -74 180 -83 205 -10 25 -56 137 -102
250 l-84 205 -235 3 -235 2 -44 -107z m226 -963 c42 -102 104 -252 139 -335
34 -82 84 -202 110 -265 26 -63 53 -128 60 -145 35 -81 165 -399 165 -402 0
-2 -171 -3 -412 -4 -7 0 -170 0 -362 1 l-348 1 7 22 c4 12 9 32 12 45 3 12 9
22 14 22 5 0 9 4 9 10 0 9 101 261 135 335 7 17 39 93 70 170 31 77 66 160 77
184 12 24 21 50 21 58 0 7 4 13 9 13 4 0 8 7 8 15 0 8 18 55 40 104 22 49 40
95 40 103 0 8 5 19 12 26 6 6 13 18 14 25 1 7 11 35 23 62 30 69 37 85 51 123
7 18 16 29 21 25 4 -4 42 -91 85 -193z"/>
<path d="M248 18580 c0 -3 -2 -350 -3 -772 l-1 -766 33 -4 c30 -4 33 -1 38 27
18 123 40 242 51 277 3 9 7 25 9 35 16 69 132 345 154 363 3 3 22 30 42 60 98
148 237 243 439 300 41 12 91 23 110 26 19 3 46 7 60 11 14 3 323 6 687 7 598
2 661 1 653 -13 -13 -23 -135 -193 -154 -213 -9 -10 -16 -22 -16 -28 0 -5 -4
-10 -9 -10 -5 0 -12 -8 -15 -18 -4 -10 -14 -27 -24 -38 -10 -10 -54 -71 -99
-134 -45 -63 -86 -119 -90 -125 -5 -5 -33 -44 -63 -85 -30 -41 -58 -76 -62
-78 -5 -2 -8 -10 -8 -18 0 -8 -7 -17 -15 -20 -8 -4 -15 -10 -15 -15 0 -8 -74
-113 -90 -129 -3 -3 -14 -18 -24 -35 -11 -16 -23 -34 -28 -40 -5 -5 -56 -75
-114 -155 -58 -80 -112 -154 -120 -165 -31 -42 -489 -673 -528 -727 -23 -31
-104 -143 -181 -248 -77 -105 -147 -201 -155 -213 -8 -12 -35 -50 -60 -84 -25
-33 -54 -74 -65 -89 -11 -15 -35 -47 -52 -71 -18 -24 -33 -47 -33 -52 0 -5 -4
-11 -8 -13 -5 -2 -51 -61 -102 -133 -51 -71 -140 -194 -197 -272 -67 -92 -101
-147 -97 -157 4 -12 20 -16 58 -16 66 -1 3388 -1 3441 0 l41 0 -1 888 0 888
-34 -1 c-22 0 -35 -6 -36 -15 -2 -9 -6 -53 -9 -98 -8 -98 -13 -142 -23 -197
-3 -22 -7 -47 -8 -55 -9 -60 -41 -202 -61 -265 -21 -67 -67 -189 -74 -195 -3
-3 -20 -34 -38 -70 -45 -87 -123 -183 -202 -247 -64 -51 -205 -129 -251 -137
-13 -3 -24 -5 -24 -6 0 -9 -175 -39 -265 -46 -156 -11 -1370 -10 -1370 1 0 6
26 44 58 87 31 42 64 86 72 98 8 12 29 41 46 64 17 22 73 99 124 171 51 71 99
136 107 143 7 7 13 17 13 21 0 4 8 16 19 27 10 11 23 29 29 40 6 10 42 62 81
114 38 52 79 109 91 125 11 17 58 81 103 142 45 62 100 138 122 169 60 85 164
227 180 247 8 9 15 19 15 22 0 5 58 85 82 114 6 8 27 37 46 65 20 28 39 53 44
54 4 2 8 10 8 17 0 7 3 15 8 17 8 4 92 115 92 123 0 3 12 19 26 35 15 16 32
38 38 49 10 18 110 156 414 575 90 124 125 172 207 286 11 16 62 86 113 157
50 70 115 160 142 198 28 39 57 78 65 87 8 10 27 37 42 60 15 24 31 44 35 46
4 2 0 11 -9 20 -15 16 -142 17 -1710 17 -931 0 -1694 -2 -1695 -5z"/>
<path d="M12085 18565 c-2 -11 -3 -187 -3 -391 1 -204 -2 -378 -5 -388 -4 -9
-3 -16 1 -16 4 0 7 -162 6 -360 -1 -198 2 -360 5 -361 30 -5 61 -5 62 0 0 3 2
15 4 26 2 11 7 43 10 70 6 59 11 87 31 180 22 100 23 105 29 125 3 10 7 27 9
37 13 66 127 328 161 370 5 7 26 33 45 57 19 23 60 61 90 82 55 39 140 86 140
78 0 -3 12 2 28 9 27 15 124 40 197 53 22 3 165 7 318 9 l277 2 -3 -1466 c-1
-806 -6 -1477 -9 -1490 -37 -127 -69 -183 -134 -241 -30 -26 -84 -57 -114 -65
-3 -1 -30 -9 -60 -18 -82 -25 -224 -43 -350 -47 -10 0 -15 -11 -15 -35 0 -28
4 -35 20 -35 24 -1 1932 -1 1992 0 40 0 41 1 39 30 -3 39 -5 40 -62 44 -169
12 -222 20 -334 50 -84 23 -186 104 -227 181 -19 35 -47 122 -54 165 -1 8 -4
670 -6 1471 l-3 1456 267 -2 c286 -1 343 -6 463 -39 153 -41 282 -127 360
-242 105 -152 206 -456 236 -709 13 -112 11 -109 55 -110 l29 -1 0 771 0 770
-1745 0 c-1744 0 -1746 0 -1750 -20z"/>
<path d="M21357 13533 c-1 0 -150 -4 -332 -7 -338 -7 -441 -10 -720 -21 -331
-13 -508 -21 -665 -30 -58 -3 -145 -7 -193 -10 -150 -7 -240 -15 -297 -27 -58
-11 -140 -45 -140 -58 0 -4 -15 -7 -32 -7 -35 1 -149 -10 -208 -19 -19 -2 -48
-6 -65 -8 -16 -2 -57 -7 -90 -12 -33 -4 -68 -8 -77 -8 -10 0 -18 -4 -18 -9 0
-4 -4 -5 -10 -2 -5 3 -36 2 -67 -4 -32 -5 -78 -12 -103 -15 -25 -4 -54 -8 -66
-10 -12 -2 -45 -7 -75 -11 -30 -3 -61 -8 -69 -10 -8 -2 -37 -7 -65 -11 -27 -3
-59 -7 -70 -9 -11 -2 -40 -6 -65 -10 -52 -7 -94 -13 -130 -20 -14 -3 -44 -7
-67 -10 -23 -2 -61 -9 -85 -14 -24 -5 -65 -12 -92 -16 -27 -3 -52 -8 -55 -10
-3 -1 -22 -6 -41 -9 -57 -9 -93 -17 -135 -27 -22 -5 -51 -11 -65 -13 -34 -5
-122 -23 -140 -30 -8 -3 -28 -7 -45 -10 -42 -7 -131 -32 -146 -41 -8 -5 -10
-4 -5 3 4 7 -7 5 -29 -3 -19 -9 -37 -15 -40 -15 -3 0 -6 0 -7 -1 -3 -1 -32 -7
-63 -12 -11 -3 -27 -7 -35 -10 -8 -3 -40 -13 -70 -20 -94 -25 -361 -105 -440
-132 -41 -14 -77 -26 -80 -27 -7 -1 -12 -3 -115 -38 -49 -17 -94 -32 -100 -34
-5 -2 -23 -9 -40 -16 l-30 -13 50 -14 c84 -24 309 -95 330 -104 11 -4 40 -13
65 -20 25 -6 52 -14 60 -17 26 -9 303 -65 375 -76 22 -4 54 -9 70 -11 39 -7
103 -16 135 -20 110 -13 134 -16 140 -20 3 -2 37 -6 76 -9 38 -3 83 -8 99 -10
37 -5 137 -17 185 -22 213 -21 866 -20 1042 1 18 2 76 7 128 10 52 4 109 8
125 10 17 1 38 3 48 4 15 1 17 9 12 69 -3 37 -8 92 -12 122 -13 110 -4 266 22
390 3 14 7 37 10 53 3 15 7 39 10 55 3 15 9 41 14 57 l9 30 2 -30 c1 -16 4
-75 5 -130 4 -108 13 -235 21 -275 2 -14 7 -45 10 -70 10 -67 11 -73 17 -100
4 -14 9 -36 11 -50 2 -14 14 -65 25 -113 21 -86 21 -110 -2 -105 -7 1 -41 -2
-77 -6 -36 -4 -87 -9 -115 -12 -27 -2 -77 -7 -110 -10 -95 -9 -206 -17 -405
-29 -256 -16 -980 -10 -1090 10 -14 2 -54 9 -90 15 -36 5 -76 12 -90 15 -14 3
-38 7 -55 10 -51 8 -88 16 -97 21 -5 3 -21 7 -36 10 -15 2 -38 9 -52 14 -14 5
-34 11 -45 13 -11 2 -27 6 -35 9 -8 3 -71 25 -140 48 -137 46 -275 99 -358
136 -29 13 -54 24 -57 24 -2 0 -32 13 -67 29 -35 16 -93 43 -130 59 l-68 31
-125 -49 c-68 -27 -144 -58 -167 -68 -24 -10 -59 -25 -78 -33 -43 -17 -127
-58 -120 -58 3 -1 66 -28 140 -62 74 -33 185 -80 245 -105 61 -24 119 -49 130
-54 11 -5 45 -19 75 -30 74 -29 96 -38 123 -49 72 -31 156 -61 168 -61 8 0 19
-4 24 -8 16 -15 393 -133 414 -130 3 0 8 0 11 -2 3 -1 16 -3 30 -6 130 -21
169 -27 195 -30 324 -29 839 -24 1169 11 223 24 452 24 600 0 17 -2 45 -7 61
-9 17 -3 51 -9 77 -14 l48 -9 38 51 c22 28 56 68 76 89 99 102 346 145 581
101 65 -12 213 -68 265 -102 30 -19 90 -67 132 -108 76 -72 77 -73 127 -70 83
3 168 73 301 246 94 121 175 178 363 254 45 18 211 16 230 -3 6 -6 18 -11 28
-11 18 0 189 -85 264 -132 28 -17 83 -48 123 -69 63 -32 81 -37 130 -34 31 1
71 6 87 10 32 9 186 66 242 90 85 38 100 44 128 56 17 7 32 13 35 14 3 1 19 7
35 14 33 14 136 41 175 46 14 2 54 7 90 12 36 4 187 8 335 7 246 -1 335 -4
450 -18 22 -2 67 -8 100 -12 51 -5 147 -24 205 -39 8 -2 56 -18 105 -35 181
-65 404 -185 655 -355 73 -49 128 -79 151 -82 31 -5 40 0 78 38 50 51 107 165
151 298 32 98 69 238 75 281 2 14 4 26 6 28 3 4 5 17 13 77 5 33 10 69 12 80
6 29 5 176 -1 205 -3 14 -7 36 -10 50 -17 87 -112 213 -210 281 -27 19 -52 37
-55 41 -5 7 -76 35 -110 43 -83 22 -151 36 -235 50 -129 21 -140 23 -200 30
-27 3 -66 8 -85 11 -46 6 -212 24 -275 29 -27 3 -75 7 -105 11 -30 3 -77 8
-104 10 -27 2 -72 6 -100 8 -50 5 -120 11 -266 21 -41 3 -104 8 -140 11 -36 3
-90 8 -120 9 -68 4 -228 15 -295 20 -27 2 -102 7 -165 10 -63 4 -135 8 -160
10 -174 12 -646 25 -653 18z m1838 -627 c61 -4 130 -9 155 -11 25 -3 72 -7
105 -9 33 -3 67 -7 76 -11 9 -3 20 -5 25 -4 8 2 39 -2 184 -27 82 -14 194 -34
215 -38 11 -3 63 -14 115 -25 160 -33 261 -79 320 -144 36 -39 67 -102 69
-139 4 -72 4 -86 -2 -123 -10 -61 -33 -140 -53 -182 -49 -98 -159 -82 -440 67
-435 231 -651 330 -788 364 -77 20 -71 19 -176 36 -85 15 -372 19 -470 6 -36
-4 -76 -9 -90 -11 -14 -1 -52 -8 -85 -14 -33 -7 -71 -14 -85 -17 -86 -16 -301
-91 -395 -136 -139 -67 -202 -87 -305 -93 -84 -5 -240 55 -453 174 -130 72
-237 96 -347 77 -64 -10 -171 -65 -255 -129 -52 -40 -179 -140 -185 -147 -17
-17 -122 -91 -160 -113 -77 -43 -129 -49 -185 -19 -28 14 -104 69 -115 83 -11
14 -81 49 -122 60 -54 14 -147 22 -238 18 -8 0 -24 0 -35 1 -21 1 -90 -5 -156
-15 -44 -7 -46 -2 -25 49 31 74 123 135 215 141 76 6 153 -17 310 -92 183 -87
203 -95 254 -94 94 0 185 46 372 186 158 118 294 193 385 212 58 13 178 5 252
-15 74 -21 96 -30 279 -113 47 -21 91 -39 97 -39 7 0 12 -5 12 -12 0 -6 3 -9
6 -5 3 3 25 -1 47 -9 104 -37 157 -25 372 84 216 109 316 150 418 168 17 2 33
6 36 8 3 2 22 7 41 10 19 3 46 8 60 11 58 12 161 23 290 31 52 3 96 7 97 7 4
4 259 -1 358 -7z"/>
<path d="M299 13156 c-2 -2 -22 -6 -44 -9 -70 -9 -215 -68 -215 -88 0 -6 17
-62 27 -89 4 -8 6 -18 5 -22 -1 -4 27 7 62 23 35 16 74 32 87 35 13 3 35 7 49
10 113 24 230 -12 273 -85 39 -67 30 -172 -20 -231 -55 -66 -131 -99 -243
-107 -41 -3 -76 -7 -78 -8 -7 -6 -6 -105 1 -111 3 -4 39 -8 79 -9 135 -4 211
-29 275 -93 98 -95 73 -266 -52 -348 -22 -14 -34 -18 -106 -33 -37 -8 -126 -6
-169 3 -69 15 -103 26 -140 44 -46 22 -49 20 -74 -52 -13 -39 -13 -52 -4 -58
23 -16 93 -45 128 -54 19 -4 42 -10 50 -12 8 -2 65 -6 127 -7 192 -5 313 42
413 161 34 42 53 100 56 179 7 170 -80 285 -246 329 l-55 14 30 12 c97 37 159
91 198 170 32 65 32 197 -1 258 -12 24 -31 53 -42 64 -11 12 -20 24 -20 28 0
13 -127 70 -170 77 -39 6 -177 12 -181 9z"/>
<path d="M4630 13153 c-69 -11 -177 -47 -190 -65 -3 -3 -12 -8 -19 -10 -39 -9
-151 -122 -195 -198 -32 -55 -68 -149 -83 -220 -14 -68 -8 -301 10 -370 58
-219 221 -386 417 -426 108 -23 282 -9 342 26 10 5 24 10 31 10 22 0 149 94
186 138 143 169 189 423 127 704 -10 42 -44 118 -79 173 -35 55 -121 142 -149
151 -10 3 -18 9 -18 13 0 11 -109 53 -172 67 -32 6 -177 11 -208 7z m165 -139
c136 -28 253 -162 298 -342 22 -87 20 -263 -4 -350 -79 -284 -305 -408 -550
-299 -82 36 -182 172 -210 283 -28 111 -32 249 -10 354 41 194 167 336 316
355 28 4 52 9 54 10 4 4 61 -2 106 -11z"/>
<path d="M6955 13149 c-59 -8 -128 -26 -170 -44 -16 -7 -37 -16 -45 -19 -67
-29 -154 -102 -205 -171 -17 -22 -32 -42 -36 -45 -15 -13 -71 -163 -83 -220
-18 -85 -13 -285 9 -365 61 -224 216 -370 446 -420 95 -20 255 -17 379 8 41 9
101 32 102 40 0 4 -5 35 -12 68 -11 49 -16 59 -29 53 -54 -23 -167 -42 -253
-42 -211 -1 -362 89 -438 258 -43 94 -58 278 -33 385 8 33 16 65 17 70 8 42
62 131 107 176 49 50 133 102 184 114 11 2 37 9 57 13 62 16 236 6 303 -17 33
-11 63 -17 66 -13 6 7 39 106 39 117 0 8 -46 25 -115 42 -67 16 -214 22 -290
12z"/>
<path d="M8928 13155 c-2 -2 -19 -7 -38 -10 -191 -32 -357 -181 -425 -380 -9
-27 -19 -59 -21 -70 -2 -11 -8 -41 -12 -67 -8 -39 -10 -253 -3 -253 1 0 4 -16
6 -35 6 -54 54 -179 92 -239 72 -113 188 -198 318 -234 65 -18 209 -19 284 -1
233 54 401 248 438 504 9 60 8 245 0 294 -11 60 -53 176 -83 230 -62 111 -200
214 -329 246 -47 11 -219 22 -227 15z m175 -147 c12 -6 23 -10 25 -9 11 9 100
-50 138 -92 69 -77 111 -169 130 -287 13 -79 6 -236 -13 -295 -4 -11 -8 -24
-9 -30 -26 -114 -113 -224 -222 -277 -54 -27 -73 -31 -140 -31 -97 0 -120 5
-182 39 -144 79 -231 251 -233 464 -1 102 5 143 33 234 32 102 69 158 153 229
31 26 99 56 144 63 21 3 39 7 41 9 8 7 116 -6 135 -17z"/>
<path d="M11317 13154 c-1 -1 -24 -5 -51 -8 -28 -4 -75 -16 -105 -27 -31 -10
-60 -20 -66 -22 -5 -1 -12 -4 -15 -7 -3 -3 -22 -14 -43 -24 -55 -29 -138 -104
-178 -161 -18 -27 -36 -52 -40 -55 -5 -5 -57 -137 -65 -165 -26 -105 -27 -256
-1 -385 20 -96 82 -208 156 -280 55 -55 151 -117 190 -125 11 -2 29 -9 40 -15
33 -17 97 -24 236 -23 135 1 147 2 232 22 72 18 84 34 70 91 -17 63 -24 72
-47 60 -67 -36 -286 -50 -384 -24 -248 65 -369 281 -333 595 13 113 82 250
155 308 50 39 126 77 188 94 79 22 253 15 333 -12 35 -12 66 -20 69 -16 3 3 2
5 -3 5 -4 0 -2 7 5 15 7 8 9 15 5 15 -4 0 -3 6 3 13 7 7 13 28 14 47 3 32 1
34 -47 51 -28 9 -70 20 -95 24 -42 7 -218 14 -223 9z"/>
<path d="M27047 13149 c-59 -9 -182 -55 -197 -75 -7 -8 -18 -14 -24 -14 -22 0
-147 -142 -176 -199 -82 -163 -106 -369 -65 -548 11 -49 14 -59 29 -100 56
-157 180 -279 337 -334 95 -33 248 -35 351 -5 84 25 162 68 222 123 42 39 116
139 116 158 0 7 7 18 15 25 8 6 14 15 13 18 -1 4 6 32 16 63 21 71 26 92 32
154 11 112 -2 281 -25 323 -5 9 -8 19 -8 22 4 10 -48 130 -55 130 -5 0 -8 6
-8 14 0 8 -33 48 -72 89 -80 82 -162 128 -270 153 -38 9 -180 11 -231 3z m183
-134 c58 -12 124 -51 172 -100 43 -43 105 -148 113 -191 2 -10 4 -19 5 -19 11
0 29 -158 26 -230 -10 -209 -100 -383 -237 -453 -63 -32 -176 -45 -251 -29
-157 33 -286 200 -313 402 -32 243 46 466 200 571 72 49 191 70 285 49z"/>
<path d="M9944 13141 c-2 -2 -20 -5 -39 -7 -20 -1 -54 -5 -76 -9 l-39 -7 0
-623 0 -623 48 -5 c94 -9 358 -4 410 8 28 7 52 11 52 9 0 -11 135 58 169 86
90 76 136 208 111 324 -12 58 -31 106 -42 106 -5 0 -8 5 -8 11 0 10 -32 43
-77 79 -24 20 -90 50 -108 50 -8 0 -15 5 -15 10 0 6 9 10 20 10 11 0 20 5 20
10 0 6 5 10 11 10 20 0 90 62 116 103 33 53 37 70 37 157 0 86 -19 133 -79
193 -35 35 -121 84 -160 91 -87 16 -125 19 -228 20 -65 1 -120 -1 -123 -3z
m318 -153 c37 -17 62 -37 77 -61 61 -100 36 -220 -59 -279 -51 -32 -77 -40
-135 -43 -22 -2 -56 -4 -75 -5 -19 -2 -53 -2 -76 -1 l-41 1 1 201 c1 192 2
202 21 210 11 4 68 6 126 5 88 -2 114 -7 161 -28z m-62 -522 c58 -11 139 -56
167 -92 68 -90 61 -225 -16 -302 -34 -34 -96 -64 -161 -78 -35 -7 -221 -6
-229 1 -9 10 -10 459 0 471 9 11 180 11 239 0z"/>
<path d="M1099 13130 c-1 -3 -2 -169 -4 -370 -1 -201 -5 -390 -9 -420 -24
-197 -82 -300 -188 -338 -39 -13 -46 -20 -43 -37 2 -11 7 -38 10 -60 7 -49 16
-55 69 -43 187 41 277 174 313 458 2 19 6 175 8 345 2 171 4 315 4 321 1 8 60
11 208 10 l207 -1 0 -563 0 -563 80 3 81 3 5 58 c3 31 3 57 0 57 -3 0 -4 19
-2 42 2 34 2 165 1 223 0 6 0 53 0 105 1 52 1 118 1 145 -1 184 -1 221 -1 230
0 6 0 53 0 105 1 52 1 118 1 145 0 28 0 70 0 94 0 24 -2 46 -5 50 -8 7 -735 8
-736 1z"/>
<path d="M2454 13125 c-34 -102 -106 -314 -111 -325 -3 -8 -7 -19 -8 -25 -2
-5 -30 -89 -63 -185 -32 -96 -78 -231 -101 -300 -23 -69 -45 -132 -48 -140 -3
-8 -7 -19 -9 -25 -1 -5 -21 -64 -43 -130 -23 -65 -41 -120 -41 -122 0 -2 37
-3 83 -3 l84 0 64 198 65 197 222 2 c218 2 232 1 238 -29 1 -5 3 -10 4 -13 1
-3 3 -8 5 -12 1 -5 5 -15 8 -23 3 -8 29 -82 56 -165 l49 -150 86 -3 c47 -1 86
1 86 5 0 7 -169 508 -296 878 -25 72 -47 137 -49 145 -2 8 -4 16 -5 18 -2 1
-3 5 -5 10 -1 4 -5 16 -9 27 -20 52 -34 91 -36 100 -1 6 -6 20 -11 33 -5 13
-9 28 -9 33 0 11 -3 11 -114 13 -51 1 -90 -3 -92 -9z m122 -217 c9 -40 50
-170 91 -288 40 -118 73 -217 73 -220 0 -3 -83 -5 -185 -5 -137 0 -185 3 -185
12 0 7 34 112 75 235 68 205 95 293 97 326 3 32 17 5 34 -60z"/>
<path d="M3129 13120 c-5 -75 -2 -120 6 -123 5 -1 92 -2 193 -2 177 1 182 1
183 -19 0 -12 0 -265 1 -563 l0 -543 79 0 c43 0 80 3 80 8 1 7 8 120 9 137 0
6 -1 106 -3 223 -1 139 1 212 8 212 6 0 6 3 -1 8 -6 4 -9 48 -7 117 3 129 3
107 0 270 -1 72 -1 135 1 141 2 7 67 10 192 10 120 -1 190 3 191 9 6 64 3 125
-6 126 -5 1 -216 2 -467 3 -401 1 -458 -1 -459 -14z"/>
<path d="M5365 13132 c-2 -2 10 -32 27 -66 18 -33 33 -63 33 -66 1 -3 53 -111
117 -240 229 -465 248 -505 248 -525 0 -35 -47 -119 -96 -169 -54 -57 -99 -77
-170 -77 l-54 0 -1 -37 c0 -20 -3 -49 -5 -64 -6 -34 3 -39 73 -39 76 0 106 7
162 36 115 59 204 187 316 455 26 63 55 133 65 155 9 22 23 56 30 75 7 19 21
53 31 75 9 22 40 99 69 170 28 72 60 149 70 171 11 23 28 66 38 96 l19 55 -83
-1 c-45 -1 -84 -3 -86 -6 -7 -8 -48 -112 -48 -121 0 -4 -5 -20 -12 -36 -6 -15
-12 -30 -13 -33 -1 -3 -4 -12 -8 -20 -3 -8 -22 -60 -42 -115 -20 -55 -48 -130
-61 -167 -14 -37 -26 -71 -26 -75 0 -4 -4 -16 -10 -26 -5 -10 -11 -26 -13 -35
-2 -9 -13 -40 -23 -69 -11 -28 -17 -55 -14 -60 4 -4 1 -3 -5 2 -6 6 -26 46
-43 90 -36 89 -39 95 -170 380 -51 110 -96 204 -101 209 -5 6 -9 17 -9 25 0 9
-7 25 -15 36 -13 16 -28 19 -100 20 -47 1 -87 -1 -90 -3z"/>
<path d="M7424 13128 c-7 -10 -7 -115 -1 -125 3 -4 86 -8 186 -7 99 0 184 -2
188 -5 5 -3 8 -256 8 -561 l0 -555 83 -3 82 -3 0 564 0 563 186 0 c113 -1 189
3 193 9 4 6 7 37 7 70 l-1 60 -463 0 c-255 0 -466 -3 -468 -7z"/>
<path d="M11896 12510 c1 -344 2 -628 3 -632 0 -5 37 -8 81 -8 l80 0 0 290 0
290 55 0 c30 0 83 -8 118 -17 50 -14 71 -27 112 -69 58 -59 79 -84 69 -84 -4
0 0 -8 8 -17 8 -10 18 -27 21 -38 2 -11 21 -65 42 -120 20 -55 40 -111 45
-125 4 -14 17 -45 29 -68 l21 -42 85 0 c47 0 85 2 85 4 0 2 -16 41 -35 85 -19
45 -34 82 -34 84 0 1 -2 9 -5 17 -3 8 -21 59 -41 112 -48 134 -89 212 -141
268 -52 55 -131 99 -193 106 -13 2 -26 5 -29 8 -5 6 58 90 103 138 14 15 25
30 25 33 0 3 8 13 18 23 18 19 28 32 102 122 24 30 51 63 60 72 8 9 27 31 41
50 15 18 45 55 68 83 23 27 41 52 41 55 0 4 -42 6 -93 6 l-93 0 -66 -85 c-37
-47 -74 -95 -83 -106 -8 -11 -67 -87 -131 -170 -63 -82 -124 -161 -134 -174
-11 -13 -29 -25 -42 -26 l-23 -2 -5 281 -5 281 -80 0 -80 1 1 -626z"/>
<path d="M12915 13130 c-1 -3 -2 -287 -2 -632 l0 -628 88 0 87 0 43 68 c24 37
45 71 48 75 6 16 350 562 361 574 5 7 10 15 10 18 0 3 24 47 54 98 29 51 66
120 81 154 16 34 32 60 37 57 5 -3 6 -9 3 -15 -10 -15 -14 -177 -15 -554 -1
-198 -1 -386 -1 -417 l1 -58 74 0 c50 0 75 4 78 13 6 21 2 1233 -5 1243 -3 6
-40 10 -82 9 l-76 -1 -72 -114 c-40 -63 -122 -194 -182 -290 -60 -96 -113
-176 -117 -178 -5 -2 -8 -7 -8 -12 0 -5 -31 -60 -70 -124 -38 -63 -70 -120
-70 -125 0 -6 -3 -11 -7 -11 -5 0 -23 -30 -42 -68 -77 -154 -83 -162 -76 -101
3 24 7 265 10 534 l3 491 -75 0 c-41 0 -76 -3 -78 -6z"/>
<path d="M14147 13125 c-2 -9 -1 -1228 2 -1247 1 -5 161 -8 356 -8 l355 0 0
69 0 68 -272 0 -273 0 -2 224 c-1 123 2 226 7 229 4 3 114 5 244 4 l236 -1 1
26 c5 110 3 112 -73 111 -35 0 -70 0 -78 0 -8 0 -69 0 -135 -1 -66 0 -139 0
-162 0 l-42 1 0 199 0 198 222 1 c122 0 240 0 262 1 l40 1 -2 62 c-1 35 -2 65
-2 68 -2 10 -681 5 -684 -5z"/>
<path d="M25416 13130 c-3 -5 0 -1238 3 -1252 0 -5 37 -8 81 -8 l80 0 0 295
c0 229 3 295 13 296 58 5 581 3 589 -2 7 -4 10 -109 10 -298 l-1 -292 82 3 82
3 1 627 c0 437 -3 628 -10 631 -6 2 -42 3 -81 3 l-70 -1 -2 -259 c-1 -142 -4
-261 -7 -264 -3 -3 -140 -5 -303 -6 l-298 0 -5 264 -5 265 -78 0 c-43 0 -80
-2 -81 -5z"/>
<path d="M27840 13133 c0 -8 36 -59 58 -83 12 -14 35 -43 50 -65 15 -22 33
-46 40 -54 7 -8 21 -26 30 -40 9 -14 25 -32 34 -39 10 -7 18 -17 18 -22 0 -9
15 -30 45 -64 27 -29 155 -203 155 -209 0 -4 -8 -7 -17 -7 -51 -1 -139 -47
-193 -102 -37 -38 -116 -181 -125 -227 -7 -36 -58 -187 -68 -198 -5 -7 -7 -13
-4 -13 3 0 -7 -31 -23 -70 l-29 -70 82 0 c67 0 84 3 93 18 6 9 34 89 63 177
28 88 64 183 79 212 34 65 80 123 97 123 7 0 15 5 17 11 2 5 10 11 18 12 8 2
21 6 28 11 8 5 49 11 93 13 62 4 79 3 80 -8 1 -8 2 -138 3 -289 l1 -275 78 -3
c57 -2 77 0 78 10 0 7 1 138 1 291 l1 278 71 -2 c39 -1 76 -5 81 -9 6 -4 22
-10 38 -14 42 -10 105 -73 139 -140 30 -60 64 -149 74 -195 3 -13 9 -32 15
-43 5 -10 7 -18 3 -18 -3 0 -1 -7 6 -15 7 -8 9 -15 4 -15 -4 0 -3 -5 4 -12 7
-7 12 -18 12 -25 0 -7 8 -31 17 -53 l18 -40 83 0 c76 0 83 2 77 18 -4 9 -10
26 -13 37 -2 11 -8 25 -12 30 -7 10 -51 150 -50 160 0 3 -7 19 -15 35 -8 16
-15 31 -14 32 5 7 -26 89 -57 153 -56 116 -149 195 -250 211 -49 7 -51 10 -30
32 9 9 30 35 46 57 16 22 33 45 38 50 4 6 21 28 37 50 17 22 35 46 42 55 100
126 263 338 263 342 0 2 -41 3 -92 3 l-91 0 -29 -40 c-16 -22 -34 -47 -41 -56
-7 -8 -16 -23 -22 -32 -17 -27 -209 -302 -215 -307 -3 -3 -22 -31 -43 -62 -37
-54 -66 -76 -86 -64 -4 3 -8 129 -7 281 1 175 -3 276 -9 278 -9 3 -132 2 -145
-2 -3 0 -5 -125 -5 -277 l0 -277 -26 -3 c-19 -2 -30 4 -39 22 -8 13 -17 24
-22 24 -4 0 -8 5 -8 11 0 5 -15 30 -32 54 -18 24 -53 74 -78 110 -25 37 -50
72 -55 78 -6 7 -35 48 -65 92 -30 44 -60 86 -67 93 -7 7 -13 17 -13 21 0 4 -9
19 -21 32 -19 22 -28 24 -110 24 -49 1 -89 -1 -89 -2z"/>
<path d="M29438 13120 c-2 -8 -4 -292 -3 -630 l1 -615 86 -3 87 -3 44 68 c86
134 142 224 166 266 13 23 27 44 30 47 7 5 20 27 51 80 11 19 38 62 60 95 22
33 44 69 50 80 6 11 18 32 28 47 9 14 35 57 57 95 22 37 45 77 52 88 6 11 29
55 49 98 21 42 41 77 45 77 4 0 5 -19 3 -42 -3 -24 -7 -258 -9 -520 l-4 -478
78 0 77 0 0 633 -1 632 -81 1 -81 1 -78 -126 c-73 -117 -136 -218 -190 -301
-40 -62 -120 -190 -130 -208 -5 -9 -12 -19 -15 -22 -3 -3 -12 -19 -21 -35 -9
-17 -45 -79 -80 -140 -35 -60 -78 -138 -94 -173 -26 -55 -31 -60 -36 -40 -3
13 -3 30 1 38 4 8 8 238 9 510 l3 496 -76 -1 c-58 0 -76 -3 -78 -15z"/>
</g>
</svg>
